
<svg xmlns="http://www.w3.org/2000/svg" xmlns:xlink="http://www.w3.org/1999/xlink" viewBox="0 0 324.3 118.9"><defs><style>.cls-1{fill:none;}.cls-2{fill:#fff;}.cls-3{clip-path:url(#clip-path);}.cls-4{fill:#ed6065;}.cls-5{fill:#009c50;}.cls-6{fill:#8bbd22;}.cls-7{fill:#d3d900;}.cls-8{fill:#147bd1;}.cls-9{fill:#fdda24;}.cls-10{fill:#f5a026;}.cls-11{fill:#ea5927;}.cls-12{fill:#7dcaeb;}.cls-13{fill:#00a4e2;}</style><clipPath id="clip-path" transform="translate(-7.7 -116)"><path class="cls-1" d="M340.2,211.3V0H0V211.3l156.8-.3a6.53,6.53,0,0,1-6.2-5.7V205c-.6-6.4-.8-9.6-.9-12.8a6.48,6.48,0,0,1-4.2-3.2,6.87,6.87,0,0,1,.3-6.8,61.91,61.91,0,0,1,19.9-20.5h0l.3-.2a8.06,8.06,0,0,1,7.1-.3c.3.1.5.3.8.4l.1.1c.4.2.8.5,1.3.8a6.72,6.72,0,0,1,3.4-.7c1.3.1,2.5.2,3.3.3h.3a6.92,6.92,0,0,1,6.2,6.1,10.53,10.53,0,0,1,.1,1.2c.5,3.9.8,5.6.9,6.4a59.06,59.06,0,0,1,4.5,6.6h0a6.82,6.82,0,0,1,.3,6.5l-.1.1a6.77,6.77,0,0,1-4.2,3.4,112,112,0,0,1-1,12.9,6.69,6.69,0,0,1-6,5.7Z"/></clipPath></defs><g id="Layer_2" data-name="Layer 2"><g id="Layer_1-2" data-name="Layer 1"><g id="Layer_1-3" data-name="Layer 1"><path id="House" class="cls-2" d="M189.3,185.2a53.86,53.86,0,0,0-4.3-6.3v-.1h0l-.4-.4c-.7-1-1.6-8.8-1.6-9.4a1.41,1.41,0,0,0-1.3-1.5c-.8-.1-2-.2-3.3-.3a1.25,1.25,0,0,0-1.1.6,1.45,1.45,0,0,0-.2.7v1.6h0c0,.1-.1.1-.1.2a.3.3,0,0,1-.4,0c-.6-.5-3.9-2.9-5.6-4l-.3-.1a2.33,2.33,0,0,0-2,0l-.1.1a55.77,55.77,0,0,0-18.3,18.8,1.23,1.23,0,0,0-.1,1.3c.4.7,3.7.9,4.2,1a.8.8,0,0,1,.6.6,154,154,0,0,0,1,16.6,1.28,1.28,0,0,0,1,1c.4,0,1.7-.1,5.4-.1.1,0,.3-.1.3-.2h0v-.1c-.4-3.6-.5-6.7-.5-6.9a.52.52,0,0,0-.2-.4,4.21,4.21,0,0,1-2.2-3.7c-.1-7.1.3-12.6.3-12.6s0-.8.7-.7a.69.69,0,0,1,.6.8c-.2,3.1-.3,8.6-.3,8.6a1,1,0,0,0,2,0c0-4.3.3-8.7.3-8.7a.68.68,0,0,1,.7-.7h0a.63.63,0,0,1,.6.5v.4c-.3,3.8-.3,8.6-.3,8.6a1.09,1.09,0,0,0,.9,1.1h.1c1,0,1-1.1,1-1.1,0-3.6.3-8.6.3-8.6a.67.67,0,0,1,.6-.7h.1c.4,0,.6.3.6.7h0c-.3,3.9-.3,9.9-.3,12.5a4.11,4.11,0,0,1-2.1,3.8.52.52,0,0,0-.2.4c.1,2.4.3,5,.5,6.9a.22.22,0,0,0,.2.2h8.4c.2,0,.2-.1.2-.3.4-3.4.5-5.9.5-6.1s-.3-.3-.3-.3c-.4-.1-1.5-.2-2.4-.3s-.9-1.2-.9-1.2a25.49,25.49,0,0,1,4.9-17.3,1.09,1.09,0,0,1,1.3-.4c.7.2.9,2.2.9,2.4a129.41,129.41,0,0,1-.6,23.3c0,.2.1.3.2.3h0l3.9.1a1.27,1.27,0,0,0,1.1-1,114.73,114.73,0,0,0,1-16.6c0-.3.3-.5.6-.6l3.2-.3a1.1,1.1,0,0,0,1-.6,1.43,1.43,0,0,0,.2-1.5" transform="translate(-7.7 -116)"/><path class="cls-2" d="M123.6,212.9h-5c-1.6,0-1.6,0-2,1.9s-.3,2,1.2,2h3l-1.7,9.7c-.4,2.2-1.4,3.7-4.3,4.6-.8.2-.9.5-.9.8a4.94,4.94,0,0,0,.5,1.6c.5,1.2.7,1.4,1.2,1.4a3.19,3.19,0,0,0,1.4-.3c4.1-1.4,5.8-4.6,6.5-8.4l1.9-10.9c.2-2.4.2-2.4-1.8-2.4" transform="translate(-7.7 -116)"/><path class="cls-2" d="M140.6,212.9c-2,0-2,0-2.3,1.7l-1.5,8.8c-.4,2.6-1.1,4.1-3.6,4.1s-3.3-1.5-2.9-3.8l1.4-8.4c.4-2.4.3-2.4-1.8-2.4s-2.1,0-2.4,1.6l-1.5,8.8c-.9,5,2.2,8.1,6.7,8.1,4.9,0,7.5-2.2,8.3-7.5l1.5-8.8c.3-2.2.2-2.2-1.9-2.2" transform="translate(-7.7 -116)"/><path class="cls-2" d="M149.9,227.3c1.6-.1,2.5-.8,2.5-1.6s-1.2-1.3-2.7-1.8c-3.1-1-5.8-2-5.8-5.3,0-3.9,3.2-6,7.2-6,1.6,0,3.2.1,4.8.2,1.1.1,1.4.5,1,2.2s-.8,1.8-1.7,1.8c-1.1-.1-2.6-.2-4.4-.2-2,0-2.6.8-2.6,1.4,0,.9.8,1.4,2.7,1.9,3.5,1,5.8,2.4,5.8,5.5,0,3.6-2.6,5.7-6.9,5.8a31.2,31.2,0,0,1-6.1-.3c-1.4-.2-1.4-.2-1.1-2.2.3-1.8.3-1.9,1.6-1.8a21.91,21.91,0,0,0,5.7.4" transform="translate(-7.7 -116)"/><path class="cls-2" d="M172.1,212.9H160.6c-1.6,0-1.6,0-2,2s-.3,2,1.2,2h3.7L161.4,229c-.4,2.4-.3,2.4,1.8,2.4s2,0,2.3-1.7l2.2-12.8h3.6c1.6,0,1.6,0,2-2s.3-2-1.2-2" transform="translate(-7.7 -116)"/><path class="cls-2" d="M192.4,216.7c1.6,0,1.6,0,2-2s.3-2-1.1-2H185c-2.9,0-2.9,0-3.3,2.9L179.5,228c-.5,3.2-.5,3.2,2.4,3.2h8c1.7,0,1.6,0,2-1.9s.3-2-1.2-2h-6.9l.5-3.5h5.8c1.6,0,1.6,0,1.8-1.8s.3-1.9-1.8-1.9H185l.5-3.3Z" transform="translate(-7.7 -116)"/><path class="cls-2" d="M201.1,223.3l2.6-5.8c.2-.5.2-.5.6-.5s.3,0,.4.5l.8,5.8Zm7.1-8.2c-.4-2.3-.4-2.3-3.7-2.3-3.1,0-3,0-3.9,1.9L193.7,229c-1,2-.8,2.2,1.7,2.2,2,0,2,0,2.8-1.8l1.1-2.4H206l.3,2.4c.3,1.8.3,1.8,2.3,1.8,2.2,0,2.4-.1,2-2.4Z" transform="translate(-7.7 -116)"/><path class="cls-2" d="M224.5,212.9H213c-1.6,0-1.6,0-2,2s-.3,2,1.1,2h3.7L213.7,229c-.4,2.4-.3,2.4,1.8,2.4s2,0,2.3-1.7l2.2-12.9h3.6c1.6,0,1.6,0,2-2s.4-2-1.1-1.9" transform="translate(-7.7 -116)"/><path id="House-2" class="cls-2" d="M189.3,185.2A45.53,45.53,0,0,0,185,179v-.1h0l-.4-.4c-.7-1-1.5-8.8-1.6-9.4s-.3-1.4-1.3-1.5c-.8-.1-2-.2-3.3-.3a1.25,1.25,0,0,0-1.1.6,1.45,1.45,0,0,0-.2.7v1.6h0c0,.1,0,.1-.1.2a.3.3,0,0,1-.4,0c-.6-.5-3.8-2.9-5.6-4l-.3-.1a2.33,2.33,0,0,0-2,0l-.1.1a53.71,53.71,0,0,0-18.2,18.8,1.23,1.23,0,0,0-.1,1.3c.3.7,3.7.9,4.2,1a.58.58,0,0,1,.6.6,154,154,0,0,0,1,16.6,1.18,1.18,0,0,0,1.1,1c.4,0,1.7-.1,5.4-.1.1,0,.3-.1.3-.2h0V205c-.4-3.6-.5-6.7-.5-6.9a.52.52,0,0,0-.2-.4A4.21,4.21,0,0,1,160,194c-.1-7.1.3-12.6.3-12.6s0-.8.7-.7a.69.69,0,0,1,.6.8c-.2,3.1-.3,8.6-.3,8.6a1,1,0,0,0,2,0c0-4.3.3-8.7.3-8.7a.68.68,0,0,1,.7-.7h0a.63.63,0,0,1,.6.5v.4c-.3,3.8-.3,8.6-.3,8.6a.92.92,0,0,0,.9,1h.1c1,0,1-1.1,1-1.1,0-3.6.3-8.6.3-8.6a.68.68,0,0,1,.7-.7h0c.4,0,.6.3.6.7h0c-.3,3.9-.3,9.9-.3,12.5a4.31,4.31,0,0,1-2.1,3.8.52.52,0,0,0-.2.4c.1,2.4.3,5,.4,6.9a.22.22,0,0,0,.2.2h8.4c.2,0,.2-.1.2-.3.4-3.4.5-5.9.5-6.1s-.3-.3-.3-.3c-.4-.1-1.5-.2-2.4-.3s-.9-1.2-.9-1.2a25.49,25.49,0,0,1,4.9-17.3,1.09,1.09,0,0,1,1.3-.4c.7.3.9,2.2.9,2.4a129.41,129.41,0,0,1-.6,23.3c0,.2.1.3.2.3l3.9.1a1.41,1.41,0,0,0,1.1-1,114.21,114.21,0,0,0,1-16.5c0-.3.3-.5.6-.6l3.2-.4a1.1,1.1,0,0,0,1-.6.82.82,0,0,0,.1-1.2" transform="translate(-7.7 -116)"/></g><g id="Layer_3" data-name="Layer 3"><g class="cls-3"><polygon class="cls-4" points="307.9 49.8 162.2 87.2 324.3 31.8 311.6 40.2 307.9 49.8"/><polygon class="cls-4" points="324.3 31.8 162.2 87.2 317.4 29.1 324.3 31.8"/><polygon class="cls-4" points="310.5 34.1 162.2 87.2 301.8 23.1 310.5 34.1"/><polygon class="cls-4" points="297.3 45.5 162.2 87.2 289.5 19.1 295.6 21.1 297.3 45.5"/><polygon class="cls-5" points="270.7 36 162.2 87.2 275.2 27.5 270.7 36"/><polygon class="cls-5" points="276.2 22.7 162.2 87.2 241.7 30 263.8 14.2 277.7 16.9 276.2 22.7"/><polygon class="cls-5" points="162.2 87.2 271.5 31.8 271.5 26.6 266.3 22.9 162.2 87.2"/><polygon class="cls-6" points="241.7 30 162.2 87.2 254.4 9.3 243.5 19.9 241.7 30"/><polygon class="cls-6" points="254.4 9.3 162.2 87.2 225.9 25.9 247.2 7.9 254.4 9.3"/><polygon class="cls-6" points="237.1 18.8 162.2 87.2 230.7 4.9 237.1 18.8"/><polygon class="cls-7" points="225.3 24 162.2 87.2 210.1 2.3 224.2 5.2 225.3 24"/><polygon class="cls-7" points="203.5 18.3 162.2 87.2 178.4 17.3 181.5 8.3 198.6 2.3 203.5 18.3"/><polygon class="cls-8" points="176.3 5.6 177.6 6.5 177 13.8 178.5 16.6 178.4 17.4 162.2 87.2 160.4 24.4 160.4 22.7 165.5 3.1 176.3 5.6"/><polygon class="cls-9" points="162.2 87.2 7.1 50 3.8 31.6 16.8 25.5 17.7 25.8 162.2 87.2"/><polygon class="cls-10" points="162.2 87.2 29.8 42.8 23.5 21 29.7 19.2 162.2 87.2"/><polygon class="cls-10" points="162.2 87.2 39.5 39.9 39.5 20.1 51.2 16.2 162.2 87.2"/><polygon class="cls-11" points="162.2 87.2 69.7 31.5 76.8 29.1 81.4 28.4 162.2 87.2"/><polygon class="cls-11" points="162.2 87.2 82.7 29.4 77.9 25.7 68.6 21.1 71.4 13.2 80.8 8.8 162.2 87.2"/><polygon class="cls-12" points="162.2 87.2 91.1 25.9 91.4 8.9 105.8 8.8 107.6 9.1 108.3 9.8 162.2 87.2"/><polygon class="cls-13" points="162.2 87.2 114.6 25.5 112.7 2.8 118.9 2.3 162.2 87.2"/><polygon class="cls-13" points="126.1 19.9 162.2 87.2 136.6 0.8 130.5 1.3 126.1 19.9"/><polygon class="cls-8" points="156.2 0.1 160.4 22.7 162.2 87.2 142.2 23.3 141.4 0.6 156.2 0.1"/><path class="cls-2" d="M7.7,144.4l6.2-2c4.5-1.5,8.1-1.8,11-.9s5.2,3.5,6.4,7.1a10.8,10.8,0,0,1-.5,8.8c-1.5,2.6-4.5,4.8-9.7,6.5l-6.4,2Zm11.8,14.3c3.9-1.3,5.2-2.6,5.8-4a6.1,6.1,0,0,0-.1-4,5.28,5.28,0,0,0-3.3-3.8c-1.6-.6-3.7-.1-6.1.6l-.2.1,3.7,11.2Z" transform="translate(-7.7 -116)"/><rect class="cls-2" x="34.19" y="135.6" width="6.5" height="22.7" transform="translate(-47.01 -99.84) rotate(-16.11)"/><path class="cls-2" d="M41.6,133.9l6.3-1.6c4.6-1.1,8.2-1.2,11-.1s5,3.9,5.9,7.6a10.65,10.65,0,0,1-1.1,8.7c-1.7,2.5-4.8,4.4-10.1,5.8l-6.5,1.6ZM52.3,149c4-1,5.4-2.2,6-3.6a6.38,6.38,0,0,0,.2-4.1,5.57,5.57,0,0,0-3-4c-1.6-.7-3.7-.4-6.1.2l-.2.1L52.1,149Z" transform="translate(-7.7 -116)"/><path class="cls-2" d="M76.3,141.5a17.11,17.11,0,0,0,7.8.8c1.3-.2,2.1-.9,1.9-2-.3-1.6-2.1-1.3-5.1-1.7-3.6-.5-6.3-1.7-7-5.4-.8-4.3,2-7.7,7-8.7a17.73,17.73,0,0,1,7.6.2l1.1,5.8a16.53,16.53,0,0,0-7.6-.8c-1.2.2-1.9.7-1.7,1.7.3,1.4,2,1.1,4.9,1.6,3.7.6,6.5,1.8,7.2,5.6.9,4.5-2.2,7.9-7.3,8.9a19.45,19.45,0,0,1-7.6-.1Z" transform="translate(-7.7 -116)"/><path class="cls-2" d="M104.1,120.7a11.72,11.72,0,0,1,2.5,23.3,11.61,11.61,0,0,1-12.8-10,11.76,11.76,0,0,1,10.1-13.3h.2m2.5,17.4a5.93,5.93,0,1,0-6.5-5.3v.3a5.71,5.71,0,0,0,6.3,5h.2" transform="translate(-7.7 -116)"/><path class="cls-2" d="M122.3,141.5l-1.9-22.6,6.2-.5,6.5,7.8,5.1-8.7,6.1-.5,1.9,22.6-6.4.6-.6-7.4c-.1-1.8-.3-3.8-.4-5.3h-.1c-.8,1.5-1.7,3.1-2.6,4.6l-2.4,4-3-3.6c-1.1-1.4-2.3-2.7-3.3-4.1h-.1c.2,1.6.4,3.5.5,5.3l.6,7.4Z" transform="translate(-7.7 -116)"/><polygon class="cls-2" points="141.4 0.6 156.2 0.1 156.4 5.6 148.1 5.8 148.2 8.7 155.2 8.5 155.4 13.6 148.4 13.9 148.5 17.6 157.2 17.3 157.4 22.8 142.2 23.3 141.4 0.6"/><path class="cls-2" d="M168.3,116l7,.1c3.6,0,5.8.5,7.4,1.4a4.87,4.87,0,0,1,2.7,4.4c0,2.1-1.3,3.5-3.5,4.3v.1c3.1,1.1,4.4,3.1,4.3,5.6a6.18,6.18,0,0,1-4,5.8,17.66,17.66,0,0,1-6.8,1.1l-7.4-.1Zm7.2,17.6a7.34,7.34,0,0,0,3.3-.4,1.68,1.68,0,0,0,.9-1.7c0-1.5-1-2.2-3.1-2.2h-2v4.4Zm.5-8.5c1.9,0,2.9-.6,2.9-1.9a1.54,1.54,0,0,0-.9-1.6,7.27,7.27,0,0,0-2.5-.4h-.8v3.9Z" transform="translate(-7.7 -116)"/><path class="cls-2" d="M201.4,116.7a11.82,11.82,0,0,1,11.4,12.5A12.16,12.16,0,1,1,201,116.7h.4m-1.2,17.5a5.89,5.89,0,1,0-5.2-6.5v.3a5.65,5.65,0,0,0,5.2,6.2h0" transform="translate(-7.7 -116)"/><path class="cls-2" d="M217.8,118.3l6.5.8c4.7.6,8.1,1.8,10.2,3.9a12.14,12.14,0,0,1-1.5,17c-2.5,1.7-6.1,2.4-11.5,1.7l-6.6-.8Zm4.4,18c4.1.5,5.8-.1,6.9-1.1a5.68,5.68,0,0,0,1.6-3.7,5.31,5.31,0,0,0-1.3-4.8c-1.2-1.2-3.3-1.7-5.8-2h-.2l-1.5,11.6Z" transform="translate(-7.7 -116)"/><path class="cls-2" d="M244.8,134.8l-6.4-13.9,7.4,1.4,1.5,3.5c.6,1.4,1.2,2.9,1.8,4.3h.1l3.1-3.4,2.7-2.8,7.2,1.3-10.9,10.6-1.9,10.1-6.4-1.2Z" transform="translate(-7.7 -116)"/><path class="cls-2" d="M267.3,142.7a19.76,19.76,0,0,0,6.6,4.1c1.3.3,2.3.1,2.6-1,.4-1.6-1.4-2-3.9-3.7-3-2-4.9-4.3-4-7.8,1.1-4.3,5.1-6.1,10-4.8a17.91,17.91,0,0,1,6.7,3.5l-1.5,5.8a16.87,16.87,0,0,0-6.5-4c-1.1-.3-2-.1-2.3.8-.4,1.4,1.3,1.9,3.8,3.5,3.1,2.1,5.1,4.4,4.1,8.1-1.2,4.4-5.4,6.2-10.5,4.9a18.92,18.92,0,0,1-6.8-3.4Z" transform="translate(-7.7 -116)"/><path class="cls-2" d="M297.2,135.1l6,2,1.8,24.4-6.7-2.2-.1-4.9-7.4-2.4-3,3.9-6.4-2.1Zm.8,7.5c-.9,1.2-1.7,2.4-2.6,3.6L294,148l4.2,1.4v-6.7Z" transform="translate(-7.7 -116)"/><path class="cls-2" d="M313.2,153.9,309.5,139l7,2.7.8,3.7c.3,1.5.6,3.1.9,4.6h.1l3.7-2.8,3.1-2.3,6.9,2.6-12.7,8.4-3.7,9.6-6-2.3Z" transform="translate(-7.7 -116)"/></g></g></g></g></svg>