<svg xmlns="http://www.w3.org/2000/svg" viewBox="0 0 254.44 61.38"><defs><style>.cls-1{fill:#fff;}</style></defs><g id="Layer_2" data-name="Layer 2"><g id="Layer_1-2" data-name="Layer 1"><g id="Just-Eat-Logo-Horizontal-White_RGB" data-name="Just-Eat-Logo-Horizontal-White RGB"><g id="Group_1" data-name="Group 1"><g id="TakeawayCOM_Full_Colour" data-name="TakeawayCOM Full Colour"><g id="House"><path id="Path_1" data-name="Path 1" class="cls-1" d="M28.59.59a3.54,3.54,0,0,1,3.92,0,88.28,88.28,0,0,1,8.66,6.23s.75.52.77-.36a13.85,13.85,0,0,1,.19-3.4,1.52,1.52,0,0,1,1.44-1s3.4.17,5.56.46A2.13,2.13,0,0,1,50.91,4.4s1.39,9.26,1.7,12.6c0,0,.27,1.7,2.73,4.58,0,0,5,7,5.58,8.34,0,0,1.17,2.43-1.33,2.75,0,0-4.57.46-5,.57a1.13,1.13,0,0,0-1,1.23v0s-.24,16.1-1.42,23.84c0,0-.31,3.07-2,3,0,0-4.69-.15-5.77-.12,0,0-.48,0-.4-.63,0,0,2.39-25.12.76-37.82,0,0-.06-1.64-1.32-2,0,0-1.13-.46-2.23,1A39.71,39.71,0,0,0,33.76,44.5s-.14,4,.48,5c0,0,.38.7,2.32.86l2.46.33s.46,0,.42.6c0,0-.57,7.37-.73,8.68a2.6,2.6,0,0,1-.18.87s-.09.25-.86.22c0,0-10.83-.08-12,0,0,0-.51,0-.62-.27s-.75-9.51-.73-10.82a.67.67,0,0,1,.38-.65,6.49,6.49,0,0,0,3-4.78,27,27,0,0,0,.06-4.22s.4-14.13.5-16.4c0,0,.08-.76-.92-.91a.93.93,0,0,0-1.12.69h0s0,.06,0,.08-.7,9.32-.57,13c0,0,.24,2.41-1.43,2.46,0,0-1.63.24-1.7-1.76,0,0,.12-9.07.52-13.54a1,1,0,0,0-.89-1,1,1,0,0,0-1.12.81h0s0,.06,0,.08-.7,8.67-.57,13.25c0,0,.2,2.22-1.57,2.14,0,0-1.48.18-1.56-1.8,0,0,.41-12.41.51-13.37A1,1,0,0,0,16.91,23h-.1a1,1,0,0,0-1.07.82h0s0,.06,0,.09-.66,14.84-.57,19.2c0,0-.06,4.48,3.25,6.3,0,0,.49.28.5.71,0,0,.37,7.88.71,10.41,0,0,.12.61-.42.61l-8.32.23s-1.38.1-1.7-1.61A183.91,183.91,0,0,1,7.63,34.62a1.28,1.28,0,0,0-1-1.37s-4.26-.4-5.29-.65A1.75,1.75,0,0,1,.06,30.46h0A1.27,1.27,0,0,1,.25,30,85.24,85.24,0,0,1,28.59.59Z"/></g></g></g><g id="Group_2" data-name="Group 2"><path id="Path_2" data-name="Path 2" class="cls-1" d="M87.25,23.9H79c-2.67,0-2.67,0-3.22,3.11s-.56,3.22,1.89,3.22h4.89L79.81,46.11c-.67,3.55-2.22,6-7,7.44-1.22.33-1.55.78-1.55,1.33A6.53,6.53,0,0,0,72,57.43c.78,1.89,1.22,2.22,1.89,2.22a12.28,12.28,0,0,0,2.33-.44C83,57,85.81,51.77,86.92,45.55L90,27.67c.55-3.77.55-3.77-2.78-3.77"/><path id="Path_3" data-name="Path 3" class="cls-1" d="M115.13,23.9c-3.33,0-3.33,0-3.78,2.78l-2.44,14.44c-.67,4.22-1.78,6.66-5.89,6.66s-5.44-2.44-4.78-6.22l2.33-13.77c.67-3.89.56-3.89-2.89-3.89s-3.44,0-3.89,2.67L91.35,41C89.91,49.23,95,54.34,102.23,54.34c8.11,0,12.22-3.66,13.55-12.33l2.44-14.33c.57-3.78.35-3.78-3.09-3.78"/><path id="Path_4" data-name="Path 4" class="cls-1" d="M130.34,47.56c2.67-.11,4.11-1.33,4.11-2.55,0-1.55-1.89-2.11-4.44-2.89-5-1.55-9.55-3.33-9.55-8.66,0-6.33,5.22-9.77,11.77-9.77,2.78,0,5.89.11,7.89.33,1.78.22,2.22.78,1.67,3.55s-1.22,3-2.78,2.89c-1.89-.11-4.33-.33-7.22-.33-3.33,0-4.33,1.22-4.33,2.33,0,1.44,1.33,2.22,4.44,3.11,5.78,1.67,9.55,4,9.55,9,0,5.89-4.33,9.33-11.33,9.55a54.82,54.82,0,0,1-10-.56c-2.22-.33-2.33-.33-1.78-3.55.56-2.89.56-3.11,2.67-2.89a59.34,59.34,0,0,0,9.33.44"/><path id="Path_5" data-name="Path 5" class="cls-1" d="M166.66,23.9H147.89c-2.67,0-2.67,0-3.22,3.22s-.44,3.22,1.89,3.22h6.11l-3.44,19.88c-.67,3.89-.56,3.89,2.89,3.89,3.22,0,3.33,0,3.78-2.78l3.55-21h5.89c2.67,0,2.67,0,3.22-3.22s.54-3.22-1.9-3.22"/><path id="Path_6" data-name="Path 6" class="cls-1" d="M199.76,30.23c2.67,0,2.67,0,3.22-3.22s.56-3.22-1.89-3.22H187.65c-4.78,0-4.66,0-5.44,4.78l-3.44,20.1c-.89,5.22-.78,5.22,4,5.22h13.11c2.78,0,2.67,0,3.22-3.11s.56-3.22-1.89-3.22H185.88l.89-5.78h9.44c2.55,0,2.55,0,3-3s.44-3.11-3-3.11h-8.33l.89-5.44Z"/><path id="Path_7" data-name="Path 7" class="cls-1" d="M214,40.9l4.33-9.55c.33-.78.33-.78.89-.78s.56,0,.67.89l1.33,9.44Zm11.77-13.33c-.67-3.78-.67-3.78-6-3.78-5,0-4.89,0-6.44,3.11L202.08,50.33c-1.67,3.33-1.33,3.66,2.78,3.66,3.22,0,3.22,0,4.55-3l1.78-4h10.88l.56,4c.44,3,.56,3,3.78,3,3.66,0,4-.22,3.33-3.89Z"/><path id="Path_8" data-name="Path 8" class="cls-1" d="M252.29,23.9H233.41c-2.67,0-2.67,0-3.22,3.22s-.44,3.22,1.89,3.22h6.11l-3.44,19.88c-.67,3.89-.56,3.89,2.89,3.89,3.22,0,3.33,0,3.78-2.78l3.55-21h5.89c2.67,0,2.67,0,3.22-3.22s.65-3.22-1.79-3.22"/></g></g></g></g></svg>