<svg xmlns="http://www.w3.org/2000/svg" viewBox="0 0 51.81 63.01"><defs><style>.cls-1{fill:#50504f;}.cls-2{fill:#bbe052;}.cls-3{fill:#50504e;}.cls-4{fill:#fdfdfd;}</style></defs><g id="Layer_2" data-name="Layer 2"><g id="Layer_1-2" data-name="Layer 1"><path class="cls-1" d="M25.75,0a33.63,33.63,0,0,1,13.7,2.75A20.31,20.31,0,0,1,51.53,25c-1.36,8.58-5.73,15.5-11.6,21.6A132.1,132.1,0,0,1,24.55,60.37C19.72,64,16.2,63.9,11.61,59.88c-3.9-3.43-6.11-8-8-12.69A45.69,45.69,0,0,1,1.33,18.55,24.49,24.49,0,0,1,21.63.39,24.58,24.58,0,0,1,25.75,0ZM3.39,28.37A44.26,44.26,0,0,0,6.2,44.65C8,49.14,9.89,53.57,13.4,57c3.3,3.26,5.61,3.46,9.22.61A123.27,123.27,0,0,0,40,41.53C44.8,35.91,48.11,29.62,48.32,22A16.59,16.59,0,0,0,36.89,5.23,29.15,29.15,0,0,0,24.73,3.46c-8,.57-14.28,4-18.28,11.08C3.93,19,3.46,24,3.39,28.37Z"/><path class="cls-2" d="M3.39,28.37C3.46,24,3.93,19,6.45,14.54c4-7,10.31-10.51,18.28-11.08A29.15,29.15,0,0,1,36.89,5.23,16.59,16.59,0,0,1,48.32,22c-.21,7.61-3.52,13.9-8.34,19.52A123.27,123.27,0,0,1,22.62,57.65C19,60.5,16.7,60.3,13.4,57,9.89,53.57,8,49.14,6.2,44.65A44.26,44.26,0,0,1,3.39,28.37Zm20.77,4.75c.57,0,1.15,0,1.72,0,6.74-.48,11.89-7,10.46-13.33a10.09,10.09,0,0,0-7.84-8A10.84,10.84,0,0,0,17,15.48a11,11,0,0,0-1.9,12.36C16.83,31.73,20.09,33.18,24.16,33.12Z"/><path class="cls-3" d="M24.16,33.12c-4.07.06-7.33-1.39-9-5.28A11,11,0,0,1,17,15.48,10.84,10.84,0,0,1,28.5,11.76a10.09,10.09,0,0,1,7.84,8c1.43,6.31-3.72,12.85-10.46,13.33C25.31,33.16,24.73,33.12,24.16,33.12Zm-6.65-10c0,4,2.25,6.59,6.18,6.79a9.2,9.2,0,0,0,7.21-2.66,7.11,7.11,0,0,0,2-7.4,6.79,6.79,0,0,0-5.45-4.94A8.28,8.28,0,0,0,17.51,23.14Z"/><path class="cls-4" d="M17.51,23.14a8.28,8.28,0,0,1,9.94-8.21,6.79,6.79,0,0,1,5.45,4.94,7.11,7.11,0,0,1-2,7.4,9.2,9.2,0,0,1-7.21,2.66C19.76,29.73,17.5,27.17,17.51,23.14Z"/></g></g></svg>